# xmcd CD database file
#
# Track frame offsets:
#	150
#	16185
#	32105
#	49692
#	63777
#	81190
#	99972
#	115940
#	133585
#	150365
#
# Disc length: 2292 seconds
#
# Revision: 0
# Processed by: cddbd v1.5.1PL0 Copyright (c) Steve Scherf et al.
# Submitted via: CDex 1.51
#
DISCID=6d08f20a
DTITLE=Grace Darling - Imaginary Lover
DYEAR=1900
DGENRE=Jazz
TTITLE0=I'll Go With You
TTITLE1=Speak Of The Devil
TTITLE2=You're My Imaginary Lover
TTITLE3=Going Nowhere Fast
TTITLE4=Sally On A Streetcar
TTITLE5=VooDoo Doll
TTITLE6=Getting Over You
TTITLE7=What Lovers Do
TTITLE8=Ring Ding Do
TTITLE9=Hit The Road
EXTD=
EXTT0=
EXTT1=
EXTT2=
EXTT3=
EXTT4=
EXTT5=
EXTT6=
EXTT7=
EXTT8=
EXTT9=
PLAYORDER=
